<svg xmlns="http://www.w3.org/2000/svg" width="200" height="200" viewBox="0 0 200 200">
  <!-- Body -->
  <ellipse cx="100" cy="130" rx="55" ry="50" fill="#10b981"/>
  
  <!-- Head -->
  <circle cx="100" cy="70" r="45" fill="#10b981"/>
  
  <!-- Face -->
  <circle cx="100" cy="75" r="38" fill="#d1fae5"/>
  
  <!-- Eyes - sad -->
  <ellipse cx="82" cy="70" rx="8" ry="10" fill="#1f2937"/>
  <ellipse cx="118" cy="70" rx="8" ry="10" fill="#1f2937"/>
  <circle cx="84" cy="67" r="3" fill="white"/>
  <circle cx="120" cy="67" r="3" fill="white"/>
  
  <!-- Sad eyebrows -->
  <path d="M72 58 Q82 55 90 60" stroke="#1f2937" stroke-width="3" fill="none"/>
  <path d="M128 58 Q118 55 110 60" stroke="#1f2937" stroke-width="3" fill="none"/>
  
  <!-- Sad mouth -->
  <path d="M80 95 Q100 85 120 95" stroke="#1f2937" stroke-width="3" fill="none"/>
  
  <!-- Tear drops -->
  <ellipse cx="75" cy="82" rx="3" ry="5" fill="#60a5fa"/>
  <ellipse cx="125" cy="82" rx="3" ry="5" fill="#60a5fa"/>
  
  <!-- Arms hanging down -->
  <ellipse cx="55" cy="140" rx="12" ry="25" fill="#10b981"/>
  <ellipse cx="145" cy="140" rx="12" ry="25" fill="#10b981"/>
  
  <!-- Feet -->
  <ellipse cx="80" cy="175" rx="18" ry="12" fill="#059669"/>
  <ellipse cx="120" cy="175" rx="18" ry="12" fill="#059669"/>
</svg>
